# Alias OBJ Model File
# Exported from SketchUp, (c) 2000-2012 Trimble Navigation Limited
# File units = feet

mtllib Frames.mtl

g Mesh1 Group3 Group2 Group1 Model

usemtl FrontColor
v -87.9949 21.6535 -154.263
vt -1.5748 0
vn 9.1711e-16 -1 1.11811e-15
v -87.9949 21.6535 -154.131
vt 0 0
v -88.1262 21.6535 -154.131
vt 0 1.5748
v -88.1262 21.6535 -154.263
vt -1.5748 1.5748
f 1/1/1 2/2/1 3/3/1 4/4/1 

vn 1 9.1711e-16 -3.747e-16
vt 1.5748 0
v -87.9949 30.8399 -154.263
vt 1.5748 110.236
v -87.9949 30.8399 -154.131
vt 7.10543e-15 110.236
f 2/2/2 1/5/2 5/6/2 6/7/2 

vt 9.33144e-32 3.10575e-31
vn -3.747e-16 -1.11811e-15 -1
vt 1.5748 3.10575e-31
v -88.1262 30.8399 -154.263
vt 9.33144e-32 110.236
f 1/8/3 4/9/3 7/6/3 5/10/3 

vn -1 -9.1711e-16 3.747e-16
vt 6.19732e-32 0
v -88.1262 30.8399 -154.131
vt -7.10543e-15 110.236
vt -1.5748 110.236
f 4/1/4 3/11/4 8/12/4 7/13/4 

vt -1.5748 -1.8403e-62
vn 3.747e-16 1.11811e-15 1
vt -4.21029e-46 110.236
f 3/14/5 2/2/5 6/15/5 8/13/5 

vt 7.10543e-15 0
vn -9.1711e-16 1 -1.11811e-15
vt 1.5748 1.5748
vt 7.10543e-15 1.5748
f 6/16/6 5/5/6 7/17/6 8/18/6 

g Mesh2 Group4 Group2 Group1 Model

v -87.9949 21.6535 -157.215
v -87.9949 21.6535 -157.084
v -88.1262 21.6535 -157.084
v -88.1262 21.6535 -157.215
f 9/1/1 10/2/1 11/3/1 12/4/1 

v -87.9949 30.8399 -157.215
v -87.9949 30.8399 -157.084
vt -1.42109e-14 110.236
f 10/2/2 9/5/2 13/6/2 14/19/2 

v -88.1262 30.8399 -157.215
f 9/8/3 12/9/3 15/6/3 13/10/3 

v -88.1262 30.8399 -157.084
vt 1.42109e-14 110.236
f 12/1/4 11/11/4 16/20/4 15/13/4 

vt 8.42059e-46 110.236
f 11/14/5 10/2/5 14/21/5 16/13/5 

vt -1.42109e-14 0
vt -1.42109e-14 1.5748
f 14/22/6 13/5/6 15/17/6 16/23/6 

g Mesh3 Group5 Group2 Group1 Model

v -87.9949 21.6535 -160.168
v -87.9949 21.6535 -160.037
v -88.1262 21.6535 -160.037
v -88.1262 21.6535 -160.168
f 17/1/1 18/2/1 19/3/1 20/4/1 

v -87.9949 30.8399 -160.168
v -87.9949 30.8399 -160.037
vt 0 110.236
f 18/2/2 17/5/2 21/6/2 22/24/2 

vt 1.5748 1.42109e-14
v -88.1262 30.8399 -160.168
f 17/8/3 20/25/3 23/6/3 21/10/3 

vt -1.5748 1.42109e-14
v -88.1262 30.8399 -160.037
vt 6.19732e-32 110.236
f 20/26/4 19/11/4 24/27/4 23/13/4 

f 19/14/5 18/2/5 22/24/5 24/13/5 

vt -2.17403e-29 0
vt -2.17403e-29 1.5748
f 22/28/6 21/5/6 23/17/6 24/29/6 

g Mesh4 Group6 Group2 Group1 Model

v -87.9949 21.6535 -163.121
v -87.9949 21.6535 -162.99
v -88.1262 21.6535 -162.99
v -88.1262 21.6535 -163.121
f 25/1/1 26/2/1 27/3/1 28/4/1 

v -87.9949 30.8399 -163.121
v -87.9949 30.8399 -162.99
f 26/2/2 25/5/2 29/6/2 30/24/2 

v -88.1262 30.8399 -163.121
f 25/8/3 28/9/3 31/6/3 29/10/3 

v -88.1262 30.8399 -162.99
f 28/1/4 27/11/4 32/27/4 31/13/4 

f 27/14/5 26/2/5 30/24/5 32/13/5 

f 30/28/6 29/5/6 31/17/6 32/29/6 

g Mesh5 Group7 Group2 Group1 Model

v -87.9949 30.7087 -162.99
vt 3.92403e-14 -1.73937e-13
vn -1.17334e-30 2.95823e-31 -1
v -88.1262 30.7087 -162.99
vt 1.5748 -1.45515e-13
v -88.1262 30.8399 -162.99
v -87.9949 30.8399 -162.99
vt 3.92403e-14 1.5748
f 33/30/7 34/31/7 35/17/7 36/32/7 

v -87.9949 30.7087 -154.263
vn -9.02389e-15 -1 1.49267e-15
v -88.1262 30.7087 -154.263
vt -104.724 1.5748
vt -104.724 -1.75134e-28
f 37/2/8 38/3/8 34/33/8 33/34/8 

vt -1.5748 -6.74311e-62
v -87.9949 30.8399 -154.263
v -88.1262 30.8399 -154.263
f 38/35/5 37/2/5 39/3/5 40/4/5 

vn 1 -1.47911e-31 -8.39065e-32
vt 104.724 -5.68434e-14
vt 104.724 1.5748
f 39/3/9 37/2/9 33/36/9 36/37/9 

vt -5.89866e-16 1.5748
vn 9.02389e-15 1 -1.49267e-15
vt -5.89866e-16 1.56551e-14
vt 104.724 1.56551e-14
f 40/38/10 39/39/10 36/40/10 35/37/10 

vt 5.90079e-16 -1.44427e-15
vn -1 1.47911e-31 8.39065e-32
vt 5.90079e-16 1.5748
vt -104.724 -2.9866e-14
f 38/41/11 40/42/11 35/33/11 34/43/11 

g Mesh6 Group8 Group2 Group1 Model

v -87.9949 21.6535 -162.99
vt 3.92403e-14 -1.17093e-13
vn -1.2473e-30 4.43734e-31 -1
v -88.1262 21.6535 -162.99
vt 1.5748 -1.17093e-13
v -88.1262 21.7848 -162.99
v -87.9949 21.7848 -162.99
f 41/44/12 42/45/12 43/17/12 44/32/12 

v -87.9949 21.6535 -154.263
vn 0 -1 1.08558e-15
v -88.1262 21.6535 -154.263
vt -104.724 -3.12411e-30
f 45/2/13 46/3/13 42/33/13 41/46/13 

v -87.9949 21.7848 -154.263
v -88.1262 21.7848 -154.263
f 46/14/5 45/2/5 47/3/5 48/4/5 

vn 1 -1.47911e-31 -1.57862e-31
vt 104.724 -3.59876e-29
f 47/3/14 45/2/14 41/47/14 44/37/14 

vt 5.12252e-17 1.5748
vn 0 1 -1.08558e-15
vt 5.12252e-17 1.44427e-15
vt 104.724 1.44427e-15
f 48/48/15 47/49/15 44/50/15 43/37/15 

vn -1 1.47911e-31 1.57862e-31
vt -104.724 -1.44427e-15
f 46/41/16 48/42/16 43/33/16 42/51/16 

g Mesh7 Group10 Group9 Group1 Model

v -113.317 21.6535 -161.963
vt -78.7402 0
vn -1 0 -0
v -113.317 21.6535 -155.401
v -113.317 21.8176 -155.401
vt 0 1.9685
v -113.317 21.8176 -161.963
vt -78.7402 1.9685
f 49/52/17 50/2/17 51/53/17 52/54/17 

vn 0 -1 -0
vt 0 78.7402
v -106.755 21.6535 -161.963
vt -78.7402 78.7402
v -106.755 21.6535 -155.401
f 50/2/18 49/55/18 53/56/18 54/52/18 

vn 0 0 -1
v -106.755 21.8176 -161.963
f 53/52/19 49/2/19 52/53/19 55/54/19 

vn 0 1 -0
v -106.755 21.8176 -155.401
vt 78.7402 0
vt 78.7402 78.7402
f 52/55/20 51/2/20 56/57/20 55/58/20 

vn 0 0 1
vt 78.7402 1.9685
f 50/2/21 54/57/21 56/59/21 51/53/21 

vn 1 0 -0
f 54/2/22 53/57/22 55/59/22 56/53/22 

g Mesh8 Group11 Group9 Group1 Model

v -113.317 21.8176 -162.127
vt -1.9685 0
v -108.067 21.8176 -162.127
vt -64.9606 0
v -108.067 30.6601 -162.127
vt -64.9606 106.11
v -106.591 30.6601 -162.127
vt -82.6772 106.11
v -106.591 21.6535 -162.127
vt -82.6772 -1.9685
v -113.481 21.6535 -162.127
vt 0 -1.9685
v -113.481 21.8176 -162.127
f 57/60/19 58/61/19 59/62/19 60/63/19 61/64/19 62/65/19 63/2/19 

vt 1.9685 82.6772
vt 1.9685 80.7087
v -108.067 21.8176 -161.963
vt 64.9606 80.7087
vt 64.9606 82.6772
f 57/66/20 52/67/20 64/68/20 58/69/20 

vt 80.7087 0
vt 82.6772 0
v -113.317 30.6601 -162.127
vt 82.6772 106.11
v -113.317 30.6601 -161.963
vt 80.7087 106.11
v -113.317 30.6601 -160.651
vt 64.9606 106.11
v -113.317 21.8176 -160.651
vt 64.9606 0
f 52/70/22 57/71/22 65/72/22 66/73/22 67/74/22 68/75/22 

vt 1.9685 64.9606
vt 0 82.6772
v -113.481 21.8176 -160.651
vt 0 64.9606
f 68/76/20 52/67/20 57/66/20 63/77/20 69/78/20 

vt 1.9685 0
vt 1.9685 -1.9685
vt 80.7087 -1.9685
f 52/70/22 68/75/22 51/79/22 50/80/22 49/81/22 

vt 1.9685 1.9685
v -112.004 21.8176 -155.401
vt 17.7165 1.9685
vt 80.7087 1.9685
v -106.755 21.8176 -156.714
vt 80.7087 17.7165
vt 80.7087 80.7087
f 52/67/20 68/76/20 51/82/20 70/83/20 56/84/20 71/85/20 55/86/20 64/68/20 

v -113.481 21.8176 -155.401
f 68/76/20 69/78/20 72/53/20 51/82/20 

vt 1.9685 106.11
v -113.481 30.6601 -160.651
vt 0 106.11
f 69/2/21 68/79/21 67/87/21 73/88/21 

v -113.481 30.6601 -162.127
f 74/77/20 73/78/20 67/76/20 66/67/20 65/66/20 

vt -82.6772 0
f 63/89/17 69/61/17 73/62/17 74/63/17 

v -113.481 21.6535 -155.237
v -113.481 30.6601 -155.237
v -113.481 30.6601 -155.401
vt -1.9685 106.11
f 69/61/17 63/89/17 62/64/17 75/65/17 76/88/17 77/90/17 72/60/17 

vt -1.9685 80.7087
f 62/77/18 49/91/18 75/2/18

vt -82.6772 82.6772
f 49/91/18 62/77/18 61/92/18

vt -80.7087 80.7087
f 49/91/18 61/92/18 53/93/18

vt -80.7087 1.9685
f 53/93/18 61/92/18 54/94/18

v -106.591 21.6535 -155.237
f 78/89/18 54/94/18 61/92/18

vt -1.9685 1.9685
f 78/89/18 50/95/18 54/94/18

f 75/2/18 50/95/18 78/89/18

f 50/95/18 75/2/18 49/91/18

v -106.755 21.8176 -155.237
v -112.004 21.8176 -155.237
vt 17.7165 0
v -112.004 30.6601 -155.237
vt 17.7165 106.11
v -113.317 30.6601 -155.237
vt 82.6772 -1.9685
v -106.591 30.6601 -155.237
v -106.755 30.6601 -155.237
f 79/70/21 80/96/21 81/97/21 82/87/21 76/88/21 75/65/21 78/98/21 83/72/21 84/73/21 

f 56/84/20 70/83/20 80/96/20 79/70/20 

vt -17.7165 0
vt -80.7087 0
vt -80.7087 -1.9685
vt -1.9685 -1.9685
f 51/60/19 70/99/19 56/100/19 54/101/19 50/102/19 

v -113.317 30.6601 -155.401
v -112.004 30.6601 -155.401
vt -17.7165 106.11
f 51/60/19 72/2/19 77/88/19 85/90/19 86/103/19 70/99/19 

f 85/95/18 82/60/18 76/2/18 77/53/18 

v -113.317 30.8241 -155.237
vt 0 108.079
v -113.317 30.8241 -155.401
vt 1.9685 108.079
f 87/104/22 82/88/22 85/87/22 88/105/22 

v -113.481 30.8241 -155.237
f 82/87/21 87/105/21 89/104/21 76/88/21 

v -106.591 30.8241 -155.237
vt 82.6772 108.079
v -106.755 30.8241 -155.237
vt 80.7087 108.079
f 83/72/21 90/106/21 91/107/21 87/105/21 82/87/21 81/97/21 84/73/21 

v -106.591 30.6601 -155.401
v -106.591 30.8241 -155.401
f 83/88/22 92/87/22 93/105/22 90/104/22 

v -106.591 21.8176 -161.963
v -106.591 21.8176 -156.714
v -106.591 30.6601 -156.714
v -106.591 30.6601 -161.963
f 94/70/22 95/96/22 96/97/22 92/87/22 83/88/22 78/65/22 61/98/22 60/72/22 97/73/22 

vt 82.6772 17.7165
vt 82.6772 80.7087
f 55/86/20 71/85/20 95/108/20 94/109/20 

f 56/60/17 71/99/17 55/100/17 53/101/17 54/102/17 

v -106.755 30.6601 -155.401
v -106.755 30.6601 -156.714
f 56/60/17 79/2/17 84/88/17 98/90/17 99/103/17 71/99/17 

vt -82.6772 1.9685
f 92/110/18 83/89/18 84/100/18 98/94/18 

vt -17.7165 1.9685
f 86/111/18 98/94/18 84/100/18 81/99/18 

vt -1.9685 108.079
v -106.755 30.8241 -155.401
vt -80.7087 108.079
vt -80.7087 106.11
f 88/112/19 100/113/19 98/114/19 86/103/19 85/90/19 

f 100/84/20 88/82/20 87/79/20 91/70/20 

v -113.481 30.8241 -155.401
f 89/2/20 87/79/20 88/82/20 101/53/20 

v -113.317 30.8241 -162.127
v -113.481 30.8241 -162.127
v -113.317 30.8241 -161.963
f 102/66/20 103/77/20 101/53/20 88/82/20 104/67/20 

v -106.591 30.8241 -162.127
vt -82.6772 108.079
f 60/63/19 59/62/19 65/90/19 74/88/19 103/104/19 102/112/19 105/115/19 

vt -64.9606 82.6772
vt -82.6772 80.7087
v -106.755 30.6601 -161.963
v -108.067 30.6601 -161.963
vt -64.9606 80.7087
f 59/116/18 60/92/18 97/117/18 106/93/18 107/118/18 

v -106.591 30.8241 -161.963
f 105/106/22 108/107/22 97/73/22 60/72/22 

vt 82.6772 1.9685
vt 82.6772 82.6772
v -106.755 30.8241 -161.963
f 93/119/20 108/109/20 105/120/20 102/66/20 104/67/20 109/86/20 100/84/20 

f 93/105/22 92/87/22 96/97/22 97/73/22 108/107/22 

f 93/115/19 92/63/19 98/114/19 100/113/19 

vt -80.7087 17.7165
vt -82.6772 17.7165
f 92/110/18 98/94/18 99/121/18 96/122/18 

f 100/112/17 109/113/17 106/114/17 99/103/17 98/90/17 

f 106/73/21 109/107/21 104/105/21 66/87/21 107/74/21 

f 104/107/22 88/105/22 85/87/22 67/74/22 66/73/22 

f 77/88/19 101/104/19 88/112/19 85/90/19 

f 77/90/17 101/112/17 103/115/17 74/63/17 73/62/17 

f 101/112/17 77/90/17 76/88/17 89/104/17 

vt -1.9685 82.6772
vt -1.9685 64.9606
f 65/123/18 59/116/18 107/118/18 66/91/18 67/124/18 85/95/18 77/53/18 73/78/18 74/77/18 

f 58/89/17 64/100/17 107/114/17 59/63/17 

f 55/70/21 94/71/21 97/72/21 106/73/21 107/74/21 64/75/21 

f 99/121/18 106/93/18 97/117/18 96/122/18 

f 95/89/19 71/100/19 99/114/19 96/63/19 

f 55/70/21 64/75/21 52/79/21 49/80/21 53/81/21 

f 57/60/19 63/2/19 74/88/19 65/90/19 

f 93/119/20 100/84/20 91/70/20 90/71/20 

f 82/60/18 85/95/18 86/111/18 81/99/18 

f 80/2/22 70/79/22 86/87/22 81/88/22 

g Mesh9 Group13 Group12 Group1 Model

v -65.029 21.6535 -154.263
v -65.029 21.6535 -154.131
v -65.1603 21.6535 -154.131
v -65.1603 21.6535 -154.263
f 110/1/1 111/2/1 112/3/1 113/4/1 

v -65.029 30.8399 -154.263
v -65.029 30.8399 -154.131
f 111/2/2 110/5/2 114/6/2 115/7/2 

v -65.1603 30.8399 -154.263
f 110/8/3 113/9/3 116/6/3 114/10/3 

v -65.1603 30.8399 -154.131
f 113/1/4 112/11/4 117/12/4 116/13/4 

f 112/14/5 111/2/5 115/15/5 117/13/5 

f 115/16/6 114/5/6 116/17/6 117/18/6 

g Mesh10 Group14 Group12 Group1 Model

v -65.029 21.6535 -157.215
v -65.029 21.6535 -157.084
v -65.1603 21.6535 -157.084
v -65.1603 21.6535 -157.215
f 118/1/1 119/2/1 120/3/1 121/4/1 

v -65.029 30.8399 -157.215
v -65.029 30.8399 -157.084
f 119/2/2 118/5/2 122/6/2 123/19/2 

v -65.1603 30.8399 -157.215
f 118/8/3 121/9/3 124/6/3 122/10/3 

v -65.1603 30.8399 -157.084
f 121/1/4 120/11/4 125/20/4 124/13/4 

f 120/14/5 119/2/5 123/21/5 125/13/5 

f 123/22/6 122/5/6 124/17/6 125/23/6 

g Mesh11 Group15 Group12 Group1 Model

v -65.029 21.6535 -160.168
v -65.029 21.6535 -160.037
v -65.1603 21.6535 -160.037
v -65.1603 21.6535 -160.168
f 126/1/1 127/2/1 128/3/1 129/4/1 

v -65.029 30.8399 -160.168
v -65.029 30.8399 -160.037
f 127/2/2 126/5/2 130/6/2 131/24/2 

v -65.1603 30.8399 -160.168
f 126/8/3 129/25/3 132/6/3 130/10/3 

v -65.1603 30.8399 -160.037
f 129/26/4 128/11/4 133/27/4 132/13/4 

f 128/14/5 127/2/5 131/24/5 133/13/5 

f 131/28/6 130/5/6 132/17/6 133/29/6 

g Mesh12 Group16 Group12 Group1 Model

v -65.029 21.6535 -163.121
v -65.029 21.6535 -162.99
v -65.1603 21.6535 -162.99
v -65.1603 21.6535 -163.121
f 134/1/1 135/2/1 136/3/1 137/4/1 

v -65.029 30.8399 -163.121
v -65.029 30.8399 -162.99
f 135/2/2 134/5/2 138/6/2 139/24/2 

v -65.1603 30.8399 -163.121
f 134/8/3 137/9/3 140/6/3 138/10/3 

v -65.1603 30.8399 -162.99
f 137/1/4 136/11/4 141/27/4 140/13/4 

f 136/14/5 135/2/5 139/24/5 141/13/5 

f 139/28/6 138/5/6 140/17/6 141/29/6 

g Mesh13 Group17 Group12 Group1 Model

v -65.029 30.7087 -162.99
v -65.1603 30.7087 -162.99
v -65.1603 30.8399 -162.99
v -65.029 30.8399 -162.99
f 142/30/7 143/31/7 144/17/7 145/32/7 

v -65.029 30.7087 -154.263
v -65.1603 30.7087 -154.263
f 146/2/8 147/3/8 143/33/8 142/34/8 

v -65.029 30.8399 -154.263
v -65.1603 30.8399 -154.263
f 147/35/5 146/2/5 148/3/5 149/4/5 

f 148/3/9 146/2/9 142/36/9 145/37/9 

f 149/38/10 148/39/10 145/40/10 144/37/10 

f 147/41/11 149/42/11 144/33/11 143/43/11 

g Mesh14 Group18 Group12 Group1 Model

v -65.029 21.6535 -162.99
v -65.1603 21.6535 -162.99
v -65.1603 21.7848 -162.99
v -65.029 21.7848 -162.99
f 150/44/12 151/45/12 152/17/12 153/32/12 

v -65.029 21.6535 -154.263
v -65.1603 21.6535 -154.263
f 154/2/13 155/3/13 151/33/13 150/46/13 

v -65.029 21.7848 -154.263
v -65.1603 21.7848 -154.263
f 155/14/5 154/2/5 156/3/5 157/4/5 

f 156/3/14 154/2/14 150/47/14 153/37/14 

f 157/48/15 156/49/15 153/50/15 152/37/15 

f 155/41/16 157/42/16 152/33/16 151/51/16 

