# Alias OBJ Model File
# Exported from SketchUp, (c) 2000-2012 Trimble Navigation Limited
# File units = feet

mtllib GlowingDoors.mtl

g Mesh1 Group2 Group1 Model

usemtl FrontColor
v -53.3492 19.357 -77.1957
vt -114.173 98.4252
vn 0 0 -1
v -53.3492 11.1549 -77.1957
vt -114.173 0
v -55.9739 11.1549 -77.1957
vt -82.6772 0
v -55.9739 19.357 -77.1957
vt -82.6772 98.4252
f 1/1/1 2/2/1 3/3/1 4/4/1 

g Mesh2 Group2 Group1 Model

v -60.239 11.1549 -77.1957
vt -31.4961 0
v -62.8637 11.1549 -77.1957
vt 0 0
v -62.8637 19.357 -77.1957
vt 0 98.4252
v -60.239 19.357 -77.1957
vt -31.4961 98.4252
f 5/5/1 6/6/1 7/7/1 8/8/1 

g Mesh3 Group3 Group1 Model

v -53.3492 19.357 -135.988
vt 114.173 98.4252
vn 0 0 1
v -55.9739 19.357 -135.988
vt 82.6772 98.4252
v -55.9739 11.1549 -135.988
vt 82.6772 0
v -53.3492 11.1549 -135.988
vt 114.173 0
f 9/9/2 10/10/2 11/11/2 12/12/2 

g Mesh4 Group3 Group1 Model

v -60.239 19.357 -135.988
vt 31.4961 98.4252
v -62.8637 19.357 -135.988
v -62.8637 11.1549 -135.988
v -60.239 11.1549 -135.988
vt 31.4961 0
f 13/13/2 14/7/2 15/6/2 16/14/2 

